<svg xmlns="http://www.w3.org/2000/svg" viewBox="0 0 512 512">
  <defs>
    <linearGradient id="lg" x1="0%" y1="0%" x2="100%" y2="100%">
      <stop offset="0%" stop-color="#34d399"/>
      <stop offset="100%" stop-color="#059669"/>
    </linearGradient>
  </defs>
  <rect width="512" height="512" rx="112" fill="url(#lg)"/>
  <g transform="translate(256,240) rotate(-25)">
    <path d="M0,-130 C90,-110 130,-40 130,50 C130,110 65,155 0,175 C-65,155 -130,110 -130,50 C-130,-40 -90,-110 0,-130Z" fill="#fff" fill-opacity="0.95"/>
    <line x1="0" y1="-110" x2="0" y2="155" stroke="#10b981" stroke-width="4" stroke-opacity="0.5" stroke-linecap="round"/>
    <line x1="0" y1="-55" x2="55" y2="-25" stroke="#10b981" stroke-width="2.5" stroke-opacity="0.35" stroke-linecap="round"/>
    <line x1="0" y1="-55" x2="-55" y2="-25" stroke="#10b981" stroke-width="2.5" stroke-opacity="0.35" stroke-linecap="round"/>
    <line x1="0" y1="15" x2="65" y2="45" stroke="#10b981" stroke-width="2.5" stroke-opacity="0.35" stroke-linecap="round"/>
    <line x1="0" y1="15" x2="-65" y2="45" stroke="#10b981" stroke-width="2.5" stroke-opacity="0.35" stroke-linecap="round"/>
    <line x1="0" y1="80" x2="50" y2="105" stroke="#10b981" stroke-width="2.5" stroke-opacity="0.35" stroke-linecap="round"/>
    <line x1="0" y1="80" x2="-50" y2="105" stroke="#10b981" stroke-width="2.5" stroke-opacity="0.35" stroke-linecap="round"/>
  </g>
</svg>
